<?xml version="1.0" standalone="no"?>
<!DOCTYPE svg PUBLIC "-//W3C//DTD SVG 20010904//EN"
 "http://www.w3.org/TR/2001/REC-SVG-20010904/DTD/svg10.dtd">
<svg version="1.0" xmlns="http://www.w3.org/2000/svg"
 width="524.000000pt" height="142.000000pt" viewBox="0 0 524.000000 142.000000"
 preserveAspectRatio="xMidYMid meet">

<g transform="translate(0.000000,142.000000) scale(0.100000,-0.100000)"
fill="#000000" stroke="none">
<path d="M1673 1298 l-123 -123 -118 118 c-64 64 -122 117 -127 117 -6 0 -136
-126 -290 -280 l-280 -280 815 0 815 0 -285 285 c-157 157 -285 285 -285 285
0 0 -55 -55 -122 -122z"/>
<path d="M294 767 c-2 -7 -3 -120 -2 -252 3 -232 4 -240 23 -240 19 0 20 8 25
190 l5 190 72 -135 c85 -161 99 -181 118 -174 8 4 52 76 97 163 l83 156 3
-197 c2 -186 4 -198 21 -198 10 0 22 7 25 16 3 9 6 118 6 243 0 228 -3 251
-36 251 -7 0 -54 -81 -104 -180 -50 -99 -95 -180 -100 -180 -5 0 -47 75 -95
168 -48 92 -92 173 -97 180 -13 16 -37 16 -44 -1z"/>
<path d="M1527 773 c-4 -3 -7 -51 -7 -106 l0 -99 -30 26 c-58 48 -140 43 -193
-12 -34 -36 -47 -73 -47 -135 1 -107 60 -177 150 -177 47 0 109 29 111 52 1 7
4 0 8 -17 7 -32 38 -46 52 -23 14 22 11 472 -3 486 -13 13 -31 16 -41 5z m-63
-204 c56 -26 76 -147 33 -210 -37 -54 -112 -64 -157 -19 -26 26 -42 91 -34
142 13 81 85 120 158 87z"/>
<path d="M3212 768 c-9 -9 -12 -77 -12 -244 0 -192 3 -234 15 -244 10 -8 51
-11 142 -8 143 4 181 17 208 68 31 60 6 159 -44 175 -26 8 -26 17 -1 32 32 21
53 71 47 116 -7 54 -47 93 -109 106 -68 15 -231 14 -246 -1z m257 -53 c50 -25
58 -96 15 -136 -23 -21 -36 -24 -125 -27 l-99 -4 0 91 0 91 90 0 c60 0 101 -5
119 -15z m-36 -214 c64 -11 92 -39 92 -92 0 -33 -6 -46 -28 -65 -26 -22 -37
-24 -133 -24 l-104 0 0 95 0 95 63 -1 c34 0 84 -4 110 -8z"/>
<path d="M1684 756 c-11 -28 4 -48 33 -44 22 2 28 8 28 28 0 20 -6 26 -28 28
-18 2 -29 -2 -33 -12z"/>
<path d="M4584 756 c-11 -28 4 -48 33 -44 22 2 28 8 28 28 0 20 -6 26 -28 28
-18 2 -29 -2 -33 -12z"/>
<path d="M4367 723 c-4 -3 -7 -28 -7 -54 0 -47 -1 -48 -32 -51 -22 -2 -34 -9
-36 -20 -3 -14 4 -18 31 -18 l35 0 4 -125 c3 -120 4 -126 30 -152 23 -22 37
-27 80 -28 66 0 75 25 14 37 -64 14 -66 17 -66 149 l0 119 51 0 c43 0 50 3 47
18 -2 13 -15 18 -51 20 l-47 3 0 43 c0 52 -29 84 -53 59z"/>
<path d="M950 615 c-51 -16 -75 -41 -59 -61 8 -10 19 -9 52 7 54 24 119 25
140 1 9 -10 18 -33 19 -52 l3 -35 -84 -7 c-95 -8 -130 -26 -142 -73 -18 -64
39 -125 116 -125 38 0 95 24 95 40 0 6 5 10 10 10 6 0 10 -12 10 -26 0 -21 4
-25 23 -22 22 3 22 5 22 145 l0 143 -32 31 c-37 38 -102 47 -173 24z m154
-183 c3 -5 1 -25 -5 -45 -19 -70 -98 -100 -146 -55 -41 38 -27 80 34 98 37 11
110 12 117 2z"/>
<path d="M1701 621 c-8 -5 -11 -55 -9 -177 3 -167 3 -169 26 -172 l22 -3 0
174 c0 178 -5 199 -39 178z"/>
<path d="M1923 619 c-43 -13 -73 -53 -73 -100 0 -48 26 -70 112 -94 61 -16 98
-38 98 -57 0 -5 -11 -20 -25 -33 -31 -32 -82 -33 -143 -4 -45 22 -68 17 -56
-14 10 -28 87 -50 155 -45 55 4 65 8 92 38 24 27 28 38 23 69 -7 44 -35 66
-101 82 -75 17 -105 36 -105 63 0 55 77 73 151 36 35 -18 40 -19 45 -5 9 22
-22 53 -65 65 -42 12 -65 11 -108 -1z"/>
<path d="M2270 608 c-104 -53 -122 -214 -35 -298 35 -34 39 -35 110 -35 68 0
76 2 106 30 92 87 75 249 -31 303 -24 12 -58 22 -75 22 -17 0 -51 -10 -75 -22z
m131 -38 c31 -17 49 -64 49 -131 0 -57 -3 -64 -35 -96 -32 -32 -39 -35 -78
-30 -30 4 -50 15 -69 37 -24 26 -28 39 -28 91 0 63 18 111 47 128 23 14 89 14
114 1z"/>
<path d="M2612 622 c-9 -7 -12 -49 -10 -178 3 -167 3 -169 26 -172 21 -3 22
-1 22 90 1 163 28 218 111 218 69 0 79 -20 79 -162 0 -130 6 -152 36 -146 17
3 19 15 22 130 3 154 -8 191 -64 214 -49 21 -113 11 -149 -21 -32 -31 -33 -31
-37 2 -3 29 -16 37 -36 25z"/>
<path d="M3750 608 c-64 -33 -93 -91 -88 -175 6 -102 68 -163 164 -163 61 0
129 24 139 47 11 29 -11 34 -60 12 -58 -26 -116 -21 -151 12 -24 22 -45 76
-37 92 2 4 60 7 129 7 l124 0 0 38 c0 117 -114 184 -220 130z m109 -29 c33
-12 61 -52 61 -89 0 -19 -6 -20 -100 -20 -97 0 -100 1 -100 23 0 32 27 67 64
83 38 16 36 16 75 3z"/>
<path d="M4072 622 c-9 -7 -12 -49 -10 -178 3 -167 3 -169 26 -172 22 -3 22
-1 22 95 0 157 19 196 103 210 40 6 58 26 40 44 -16 16 -91 -8 -118 -37 l-24
-25 -3 32 c-3 34 -15 44 -36 31z"/>
<path d="M4603 623 c-10 -4 -13 -49 -13 -180 l0 -174 23 3 c22 3 22 5 25 174
3 175 0 189 -35 177z"/>
<path d="M4824 619 c-69 -20 -102 -102 -59 -149 10 -11 50 -30 89 -42 84 -25
96 -33 96 -64 0 -52 -80 -69 -159 -33 -45 20 -67 15 -56 -13 16 -41 158 -64
214 -35 73 37 80 122 13 156 -20 10 -59 24 -87 30 -60 15 -75 26 -75 56 0 54
78 72 151 35 35 -18 40 -19 45 -5 9 22 -22 53 -65 65 -42 12 -65 11 -107 -1z"/>
</g>
</svg>
